<mxfile host="app.diagrams.net" agent="Mozilla/5.0 (Windows NT 10.0; Win64; x64) AppleWebKit/537.36 (KHTML, like Gecko) Chrome/130.0.0.0 Safari/537.36" version="24.8.4">
  <diagram name="Page-1" id="R0MQEzDfksaJUqG4Wy5a">
    <mxGraphModel dx="1434" dy="746" grid="1" gridSize="10" guides="1" tooltips="1" connect="1" arrows="1" fold="1" page="1" pageScale="1" pageWidth="850" pageHeight="1100" math="0" shadow="0">
      <root>
        <mxCell id="0" />
        <mxCell id="1" parent="0" />
        <mxCell id="N-5UOcxjzlmkE44hrKLJ-22" style="edgeStyle=orthogonalEdgeStyle;rounded=0;orthogonalLoop=1;jettySize=auto;html=1;exitX=0.5;exitY=1;exitDx=0;exitDy=0;entryX=0.5;entryY=0;entryDx=0;entryDy=0;" edge="1" parent="1" source="N-5UOcxjzlmkE44hrKLJ-1" target="N-5UOcxjzlmkE44hrKLJ-2">
          <mxGeometry relative="1" as="geometry" />
        </mxCell>
        <mxCell id="N-5UOcxjzlmkE44hrKLJ-1" value="For each Camera in Cameras" style="rounded=0;whiteSpace=wrap;html=1;" vertex="1" parent="1">
          <mxGeometry x="40" y="40" width="120" height="60" as="geometry" />
        </mxCell>
        <mxCell id="N-5UOcxjzlmkE44hrKLJ-4" value="No" style="edgeStyle=orthogonalEdgeStyle;rounded=0;orthogonalLoop=1;jettySize=auto;html=1;exitX=1;exitY=0.5;exitDx=0;exitDy=0;entryX=1;entryY=0.5;entryDx=0;entryDy=0;" edge="1" parent="1" source="N-5UOcxjzlmkE44hrKLJ-2" target="N-5UOcxjzlmkE44hrKLJ-1">
          <mxGeometry x="-0.814" y="5" relative="1" as="geometry">
            <Array as="points">
              <mxPoint x="200" y="205" />
              <mxPoint x="200" y="70" />
            </Array>
            <mxPoint as="offset" />
          </mxGeometry>
        </mxCell>
        <mxCell id="N-5UOcxjzlmkE44hrKLJ-23" value="Yes" style="edgeStyle=orthogonalEdgeStyle;rounded=0;orthogonalLoop=1;jettySize=auto;html=1;exitX=0.5;exitY=1;exitDx=0;exitDy=0;entryX=0.5;entryY=0;entryDx=0;entryDy=0;" edge="1" parent="1" source="N-5UOcxjzlmkE44hrKLJ-2" target="N-5UOcxjzlmkE44hrKLJ-21">
          <mxGeometry relative="1" as="geometry" />
        </mxCell>
        <mxCell id="N-5UOcxjzlmkE44hrKLJ-2" value="Is the camera status&lt;div&gt;&lt;span style=&quot;background-color: initial;&quot;&gt;connected?&lt;/span&gt;&lt;/div&gt;" style="rhombus;whiteSpace=wrap;html=1;" vertex="1" parent="1">
          <mxGeometry x="45" y="150" width="110" height="110" as="geometry" />
        </mxCell>
        <mxCell id="N-5UOcxjzlmkE44hrKLJ-9" style="edgeStyle=orthogonalEdgeStyle;rounded=0;orthogonalLoop=1;jettySize=auto;html=1;exitX=0.5;exitY=1;exitDx=0;exitDy=0;entryX=0.5;entryY=0;entryDx=0;entryDy=0;" edge="1" parent="1" source="N-5UOcxjzlmkE44hrKLJ-6" target="N-5UOcxjzlmkE44hrKLJ-8">
          <mxGeometry relative="1" as="geometry" />
        </mxCell>
        <mxCell id="N-5UOcxjzlmkE44hrKLJ-6" value="Request status update" style="rounded=0;whiteSpace=wrap;html=1;" vertex="1" parent="1">
          <mxGeometry x="40" y="390" width="120" height="60" as="geometry" />
        </mxCell>
        <mxCell id="N-5UOcxjzlmkE44hrKLJ-15" value="Yes" style="edgeStyle=orthogonalEdgeStyle;rounded=0;orthogonalLoop=1;jettySize=auto;html=1;exitX=0.5;exitY=1;exitDx=0;exitDy=0;entryX=0.5;entryY=0;entryDx=0;entryDy=0;" edge="1" parent="1" source="N-5UOcxjzlmkE44hrKLJ-8" target="N-5UOcxjzlmkE44hrKLJ-11">
          <mxGeometry relative="1" as="geometry" />
        </mxCell>
        <mxCell id="N-5UOcxjzlmkE44hrKLJ-17" value="No" style="edgeStyle=orthogonalEdgeStyle;rounded=0;orthogonalLoop=1;jettySize=auto;html=1;exitX=1;exitY=0.5;exitDx=0;exitDy=0;entryX=0;entryY=0.5;entryDx=0;entryDy=0;" edge="1" parent="1" source="N-5UOcxjzlmkE44hrKLJ-8" target="N-5UOcxjzlmkE44hrKLJ-10">
          <mxGeometry relative="1" as="geometry" />
        </mxCell>
        <mxCell id="N-5UOcxjzlmkE44hrKLJ-8" value="Has the&lt;div&gt;camera responded recently?&lt;/div&gt;" style="rhombus;whiteSpace=wrap;html=1;" vertex="1" parent="1">
          <mxGeometry x="45" y="510" width="110" height="110" as="geometry" />
        </mxCell>
        <mxCell id="N-5UOcxjzlmkE44hrKLJ-10" value="Set status to Disconnected" style="rounded=0;whiteSpace=wrap;html=1;" vertex="1" parent="1">
          <mxGeometry x="222.5" y="535" width="120" height="60" as="geometry" />
        </mxCell>
        <mxCell id="N-5UOcxjzlmkE44hrKLJ-16" style="edgeStyle=orthogonalEdgeStyle;rounded=0;orthogonalLoop=1;jettySize=auto;html=1;exitX=0.5;exitY=1;exitDx=0;exitDy=0;entryX=0.5;entryY=0;entryDx=0;entryDy=0;" edge="1" parent="1" source="N-5UOcxjzlmkE44hrKLJ-11" target="N-5UOcxjzlmkE44hrKLJ-13">
          <mxGeometry relative="1" as="geometry" />
        </mxCell>
        <mxCell id="N-5UOcxjzlmkE44hrKLJ-18" style="edgeStyle=orthogonalEdgeStyle;rounded=0;orthogonalLoop=1;jettySize=auto;html=1;exitX=1;exitY=0.5;exitDx=0;exitDy=0;entryX=0;entryY=0.5;entryDx=0;entryDy=0;" edge="1" parent="1" source="N-5UOcxjzlmkE44hrKLJ-11" target="N-5UOcxjzlmkE44hrKLJ-12">
          <mxGeometry relative="1" as="geometry" />
        </mxCell>
        <mxCell id="N-5UOcxjzlmkE44hrKLJ-11" value="If System&amp;nbsp;&lt;div&gt;SHOULD be recording and Camera is NOT recording&lt;/div&gt;" style="rhombus;whiteSpace=wrap;html=1;" vertex="1" parent="1">
          <mxGeometry x="27.5" y="670" width="145" height="150" as="geometry" />
        </mxCell>
        <mxCell id="N-5UOcxjzlmkE44hrKLJ-12" value="Send Start command" style="rounded=0;whiteSpace=wrap;html=1;" vertex="1" parent="1">
          <mxGeometry x="222.5" y="715" width="120" height="60" as="geometry" />
        </mxCell>
        <mxCell id="N-5UOcxjzlmkE44hrKLJ-19" style="edgeStyle=orthogonalEdgeStyle;rounded=0;orthogonalLoop=1;jettySize=auto;html=1;exitX=1;exitY=0.5;exitDx=0;exitDy=0;entryX=0;entryY=0.5;entryDx=0;entryDy=0;" edge="1" parent="1" source="N-5UOcxjzlmkE44hrKLJ-13" target="N-5UOcxjzlmkE44hrKLJ-14">
          <mxGeometry relative="1" as="geometry" />
        </mxCell>
        <mxCell id="N-5UOcxjzlmkE44hrKLJ-20" style="edgeStyle=orthogonalEdgeStyle;rounded=0;orthogonalLoop=1;jettySize=auto;html=1;exitX=0.5;exitY=1;exitDx=0;exitDy=0;entryX=1;entryY=0.5;entryDx=0;entryDy=0;" edge="1" parent="1" source="N-5UOcxjzlmkE44hrKLJ-13" target="N-5UOcxjzlmkE44hrKLJ-1">
          <mxGeometry relative="1" as="geometry">
            <Array as="points">
              <mxPoint x="98" y="1030" />
              <mxPoint x="98" y="1060" />
              <mxPoint x="400" y="1060" />
              <mxPoint x="400" y="70" />
            </Array>
          </mxGeometry>
        </mxCell>
        <mxCell id="N-5UOcxjzlmkE44hrKLJ-13" value="If System&amp;nbsp;&lt;div&gt;should NOT be&amp;nbsp;&lt;/div&gt;&lt;div&gt;recording and Camera&amp;nbsp;&lt;/div&gt;&lt;div&gt;IS recording&lt;/div&gt;" style="rhombus;whiteSpace=wrap;html=1;" vertex="1" parent="1">
          <mxGeometry x="27.5" y="880" width="145" height="150" as="geometry" />
        </mxCell>
        <mxCell id="N-5UOcxjzlmkE44hrKLJ-14" value="Send Stop command" style="rounded=0;whiteSpace=wrap;html=1;" vertex="1" parent="1">
          <mxGeometry x="222.5" y="925" width="120" height="60" as="geometry" />
        </mxCell>
        <mxCell id="N-5UOcxjzlmkE44hrKLJ-24" style="edgeStyle=orthogonalEdgeStyle;rounded=0;orthogonalLoop=1;jettySize=auto;html=1;exitX=0.5;exitY=1;exitDx=0;exitDy=0;entryX=0.5;entryY=0;entryDx=0;entryDy=0;" edge="1" parent="1" source="N-5UOcxjzlmkE44hrKLJ-21" target="N-5UOcxjzlmkE44hrKLJ-6">
          <mxGeometry relative="1" as="geometry" />
        </mxCell>
        <mxCell id="N-5UOcxjzlmkE44hrKLJ-21" value="Send Keep Alive" style="rounded=0;whiteSpace=wrap;html=1;" vertex="1" parent="1">
          <mxGeometry x="40" y="290" width="120" height="60" as="geometry" />
        </mxCell>
      </root>
    </mxGraphModel>
  </diagram>
</mxfile>
